<svg width="49" height="99" viewBox="0 0 49 99" fill="none" xmlns="http://www.w3.org/2000/svg">
<path d="M46.9999 41.0001L47.9838 41.179L46.9999 41.0001ZM11 98.5L14.6095 87.5316L22.3036 96.1417L11 98.5ZM0.252153 1.53116C1.22486 1.28233 2.21196 1.08419 3.20974 0.934658L3.50616 2.91257C2.57327 3.05238 1.65275 3.23727 0.747817 3.46877L0.252153 1.53116ZM9.21125 0.601151C11.1883 0.666899 13.1798 0.897958 15.1603 1.28005L14.7814 3.24384C12.8982 2.8805 11.0112 2.66211 9.14477 2.60005L9.21125 0.601151ZM20.9281 2.8253C22.8005 3.46829 24.6417 4.24034 26.4291 5.12946L25.5384 6.92015C23.8277 6.0692 22.067 5.33104 20.2786 4.71687L20.9281 2.8253ZM31.5851 8.12106C33.2432 9.23144 34.8267 10.448 36.3127 11.7593L34.9894 13.2589C33.5716 12.0077 32.0586 10.8452 30.4723 9.78285L31.5851 8.12106ZM40.5012 16.0203C41.804 17.556 42.98 19.1813 44.0032 20.8839L42.289 21.9142C41.3247 20.3096 40.2128 18.772 38.9761 17.3141L40.5012 16.0203ZM46.6207 26.2965C47.3209 28.181 47.8343 30.1327 48.1329 32.1374L46.1547 32.4319C45.8776 30.5711 45.4002 28.754 44.7459 26.9931L46.6207 26.2965ZM48.3645 38.1733C48.2932 39.168 48.1672 40.1704 47.9838 41.179L46.0161 40.8212C46.1866 39.8836 46.3035 38.9529 46.3696 38.0303L48.3645 38.1733ZM47.9838 41.179C47.8171 42.0962 47.5975 43.0515 47.3306 44.0387L45.3999 43.5166C45.6543 42.5758 45.8607 41.6757 46.0161 40.8212L47.9838 41.179ZM45.4899 49.5646C44.8251 51.2813 44.0605 53.0609 43.2132 54.8817L41.3999 54.0379C42.2314 52.2511 42.9781 50.5123 43.6248 48.8424L45.4899 49.5646ZM40.6468 60.0538C39.7714 61.7208 38.8425 63.4061 37.8714 65.0948L36.1376 64.0978C37.0969 62.4296 38.0135 60.7667 38.8761 59.1239L40.6468 60.0538ZM34.9192 70.0338C33.91 71.6615 32.8713 73.2794 31.8136 74.8739L30.147 73.7683C31.1936 72.1905 32.2212 70.5898 33.2194 68.9799L34.9192 70.0338ZM28.5617 79.6188C27.435 81.2102 26.2986 82.7622 25.164 84.2597L23.5699 83.0519C24.6911 81.5721 25.8147 80.0375 26.9294 78.4632L28.5617 79.6188ZM21.6029 88.7866C20.3297 90.3421 19.0734 91.8076 17.8509 93.1603L16.3671 91.8193C17.5652 90.4936 18.8002 89.0531 20.0553 87.5198L21.6029 88.7866Z" fill="#FDFDFD"/>
</svg>
