<svg width="117" height="78" viewBox="0 0 117 78" fill="none" xmlns="http://www.w3.org/2000/svg">
<path d="M39.6667 61.4255L39.3065 62.3584L39.6667 61.4255ZM117 72L107.02 66.1926L106.98 77.7396L117 72ZM0.0238861 1.21726C0.244643 2.20909 0.46647 3.22898 0.693075 4.2746L2.6477 3.851C2.42102 2.80502 2.19818 1.78044 1.97611 0.78274L0.0238861 1.21726ZM2.04539 10.4229C2.49987 12.4212 2.98908 14.4745 3.53193 16.5596L5.4674 16.0557C4.93129 13.9965 4.44704 11.9643 3.99558 9.97934L2.04539 10.4229ZM5.2657 22.6485C5.889 24.6438 6.57623 26.6492 7.3434 28.6458L9.21033 27.9285C8.46047 25.9769 7.78705 24.0123 7.17472 22.0521L5.2657 22.6485ZM9.85336 34.4922C10.7647 36.3942 11.7665 38.2715 12.8734 40.1067L14.586 39.0738C13.515 37.298 12.5432 35.4775 11.657 33.628L9.85336 34.4922ZM16.4649 45.392C17.7456 47.0656 19.1374 48.6841 20.6534 50.2321L22.0823 48.8327C20.6259 47.3456 19.287 45.7889 18.0532 44.1766L16.4649 45.392ZM25.4153 54.5135C27.0515 55.8058 28.8036 57.0238 30.6818 58.1557L31.7142 56.4428C29.9085 55.3546 28.2255 54.1845 26.6548 52.944L25.4153 54.5135ZM36.3545 61.1249C37.311 61.5563 38.2947 61.9678 39.3065 62.3584L40.0268 60.4926C39.049 60.1151 38.0993 59.7178 37.1767 59.3017L36.3545 61.1249ZM39.3065 62.3584C40.1758 62.694 41.0604 63.02 41.9594 63.3364L42.6235 61.4499C41.7426 61.1398 40.8767 60.8208 40.0268 60.4926L39.3065 62.3584ZM47.3427 65.0721C49.1161 65.5954 50.9337 66.0876 52.7896 66.5502L53.2733 64.6096C51.4431 64.1534 49.653 63.6686 47.9088 63.1538L47.3427 65.0721ZM58.286 67.8126C60.1025 68.1963 61.9483 68.555 63.8186 68.8898L64.171 66.9211C62.3199 66.5897 60.4944 66.235 58.6994 65.8558L58.286 67.8126ZM69.3721 69.8049C71.2132 70.0833 73.0725 70.3407 74.9458 70.5781L75.1973 68.594C73.3391 68.3585 71.4956 68.1033 69.6711 67.8274L69.3721 69.8049ZM80.5339 71.2245C82.3919 71.4196 84.2593 71.5965 86.1319 71.7563L86.3019 69.7635C84.4417 69.6048 82.5872 69.4291 80.7427 69.2354L80.5339 71.2245ZM91.7367 72.1836C93.6069 72.3097 95.4783 72.4197 97.3469 72.5147L97.4485 70.5173C95.5905 70.4228 93.73 70.3134 91.8712 70.1881L91.7367 72.1836ZM102.961 72.7562C104.841 72.8227 106.715 72.8747 108.577 72.9134L108.618 70.9138C106.766 70.8754 104.902 70.8236 103.032 70.7574L102.961 72.7562Z" fill="#FDFDFD"/>
</svg>
