<svg width="42" height="42" viewBox="0 0 42 42" fill="none" xmlns="http://www.w3.org/2000/svg">
<rect width="42" height="42" rx="10" fill="#FFAE4F"/>
<path d="M24.5181 25.4525L26.3381 23.6325C26.5833 23.3904 26.8934 23.2247 27.2309 23.1554C27.5684 23.0862 27.9187 23.1164 28.2394 23.2425L30.4575 24.1281C30.7815 24.2596 31.0594 24.4841 31.256 24.7733C31.4527 25.0625 31.5593 25.4034 31.5625 25.7531V29.8156C31.5606 30.0535 31.5106 30.2885 31.4155 30.5066C31.3204 30.7246 31.1821 30.9212 31.009 31.0844C30.836 31.2476 30.6317 31.3741 30.4084 31.4562C30.1852 31.5384 29.9476 31.5745 29.71 31.5625C14.1669 30.5956 11.0306 17.4331 10.4375 12.3956C10.41 12.1482 10.4351 11.8978 10.5113 11.6609C10.5875 11.4239 10.713 11.2058 10.8796 11.0208C11.0461 10.8358 11.2499 10.6882 11.4776 10.5877C11.7053 10.4871 11.9517 10.4359 12.2006 10.4375H16.125C16.4752 10.4385 16.8171 10.5443 17.1067 10.7412C17.3962 10.9381 17.6203 11.2172 17.75 11.5425L18.6356 13.7606C18.7658 14.08 18.7991 14.4306 18.7311 14.7688C18.6632 15.1069 18.4972 15.4175 18.2538 15.6618L16.4338 17.4818C16.4338 17.4818 17.4819 24.575 24.5181 25.4525Z" fill="white"/>
</svg>
