<svg width="49" height="99" fill="none" xmlns="http://www.w3.org/2000/svg"><path d="M47 41l.984.179L47 41zM11 98.5l3.61-10.968 7.694 8.61L11 98.5zM.252 1.531c.973-.249 1.96-.447 2.958-.596l.296 1.978c-.933.14-1.853.324-2.758.556L.252 1.53zm8.96-.93c1.976.066 3.968.297 5.948.679l-.379 1.964A36.125 36.125 0 009.145 2.6L9.21.601zm11.716 2.224A45.676 45.676 0 0126.43 5.13l-.89 1.791a43.683 43.683 0 00-5.26-2.203l.65-1.892zm10.657 5.296a44.95 44.95 0 014.728 3.638l-1.324 1.5a42.947 42.947 0 00-4.517-3.476l1.113-1.662zm8.916 7.9a36.965 36.965 0 013.502 4.863l-1.714 1.03a34.975 34.975 0 00-3.313-4.6l1.525-1.294zm6.12 10.276a29.045 29.045 0 011.512 5.84l-1.978.295a27.038 27.038 0 00-1.41-5.439l1.876-.696zm1.743 11.876a27.97 27.97 0 01-.38 3.006l-1.968-.358c.17-.937.288-1.868.354-2.79l1.995.142zm-.38 3.006a34.933 34.933 0 01-.653 2.86l-1.931-.522c.254-.941.46-1.841.616-2.696l1.968.358zm-2.494 8.386a87.935 87.935 0 01-2.277 5.317l-1.813-.844a85.94 85.94 0 002.225-5.196l1.865.723zm-4.843 10.489a150.452 150.452 0 01-2.776 5.04l-1.733-.996a148.31 148.31 0 002.738-4.974l1.77.93zm-5.728 9.98a187.653 187.653 0 01-3.105 4.84l-1.667-1.106a185.81 185.81 0 003.072-4.788l1.7 1.054zm-6.357 9.585a178.308 178.308 0 01-3.398 4.64l-1.594-1.207a176.531 176.531 0 003.36-4.589l1.632 1.156zm-6.96 9.168a118.252 118.252 0 01-3.751 4.373l-1.484-1.34a116.326 116.326 0 003.688-4.3l1.548 1.267z" fill="#FDFDFD"/></svg>