<svg width="117" height="78" fill="none" xmlns="http://www.w3.org/2000/svg"><path d="M39.667 61.425l-.36.933.36-.932zM117 72l-9.98-5.807-.04 11.547L117 72zM.024 1.217c.22.992.442 2.012.67 3.058l1.954-.424c-.227-1.046-.45-2.07-.672-3.068l-1.952.434zm2.021 9.206c.455 1.998.944 4.052 1.487 6.137l1.935-.504c-.536-2.06-1.02-4.092-1.471-6.077l-1.95.444zm3.22 12.225a99.666 99.666 0 002.078 5.998l1.867-.718a97.124 97.124 0 01-2.035-5.876l-1.91.596zm4.588 11.844a66.49 66.49 0 003.02 5.615l1.713-1.033a64.516 64.516 0 01-2.929-5.446l-1.804.864zm6.612 10.9a52.549 52.549 0 004.188 4.84l1.43-1.4a50.545 50.545 0 01-4.03-4.655l-1.588 1.215zm8.95 9.121a50.742 50.742 0 005.267 3.643l1.032-1.713a48.753 48.753 0 01-5.06-3.499l-1.239 1.57zm10.94 6.612c.956.431 1.94.843 2.952 1.233l.72-1.865a55.904 55.904 0 01-2.85-1.191l-.822 1.823zm2.952 1.233c.869.336 1.753.662 2.652.978l.664-1.886c-.88-.31-1.746-.63-2.596-.957l-.72 1.865zm8.036 2.714c1.773.523 3.59 1.016 5.447 1.478l.483-1.94c-1.83-.457-3.62-.941-5.364-1.456l-.566 1.918zm10.943 2.74c1.816.384 3.662.743 5.533 1.078l.352-1.969a179.7 179.7 0 01-5.472-1.065l-.413 1.957zm11.086 1.993c1.841.278 3.7.536 5.574.773l.251-1.984c-1.858-.235-3.701-.49-5.526-.767l-.299 1.978zm11.162 1.42c1.858.195 3.725.372 5.598.531l.17-1.993c-1.86-.158-3.715-.334-5.56-.528l-.208 1.99zm11.203.959c1.87.126 3.741.236 5.61.33l.102-1.997a338.934 338.934 0 01-5.578-.329l-.134 1.996zm11.224.572c1.88.067 3.754.119 5.616.157l.041-2a381.5 381.5 0 01-5.586-.156l-.071 2z" fill="#FDFDFD"/></svg>